<svg id="splitsvg" version="1.1" xmlns="http://www.w3.org/2000/svg" xmlns:xlink="http://www.w3.org/1999/xlink" width="1380" height="400"><g id="svgg"><path id="path0" d="M17.865 1.821 C 10.186 6.073,5.186 11.196,1.374 18.718 L 0.015 21.400 0.015 200.000 L 0.015 378.600 1.374 381.282 C 5.282 388.993,10.199 394.020,18.049 398.327 L 21.098 400.000 199.959 400.000 L 378.820 400.000 381.510 398.643 C 388.899 394.917,394.896 388.863,398.723 381.266 L 400.000 378.731 400.000 200.003 L 400.000 21.274 398.419 18.237 C 394.544 10.791,389.384 5.636,381.833 1.665 L 378.667 -0.000 199.833 0.043 L 21.000 0.085 17.865 1.821 M213.600 67.204 C 243.062 68.989,265.481 75.727,284.876 88.626 C 291.483 93.020,291.030 92.887,296.241 91.957 C 314.290 88.735,344.003 92.859,349.460 99.344 C 352.704 103.199,346.582 124.526,339.397 134.400 C 338.356 135.830,335.600 138.845,333.272 141.100 C 328.313 145.903,328.575 144.835,329.902 154.800 C 331.251 164.940,331.619 170.060,331.857 182.000 L 332.075 193.000 333.645 197.600 C 335.680 203.563,335.778 203.736,338.170 205.545 C 342.307 208.674,344.667 211.642,348.201 218.161 C 349.262 220.119,350.608 222.279,351.191 222.961 C 351.774 223.642,353.091 225.308,354.119 226.662 C 355.709 228.756,356.505 229.384,359.445 230.862 C 369.598 235.967,372.049 244.443,373.580 279.736 L 373.976 288.872 375.337 291.936 C 376.086 293.621,377.909 297.700,379.389 301.000 C 380.869 304.300,383.029 309.160,384.190 311.800 C 385.351 314.440,387.259 318.760,388.430 321.400 C 390.812 326.766,391.354 330.420,389.906 331.345 C 388.793 332.056,387.873 330.742,385.459 325.000 C 382.852 318.797,374.713 300.308,371.989 294.400 L 370.052 290.200 369.613 281.000 C 368.094 249.161,365.264 235.882,360.125 236.471 C 359.043 236.595,358.991 236.702,358.769 239.293 C 358.293 244.828,354.853 245.177,354.239 239.753 C 353.582 233.935,352.401 231.015,348.988 226.766 C 347.824 225.318,345.936 222.438,344.792 220.366 C 338.818 209.554,336.658 208.354,335.962 215.460 C 335.772 217.407,335.139 220.944,334.557 223.320 C 333.505 227.612,333.503 227.661,334.150 230.920 C 335.115 235.785,334.989 237.343,333.185 242.797 C 330.975 249.479,330.311 252.533,330.620 254.596 C 331.029 257.322,329.933 258.563,327.829 257.756 C 327.145 257.493,321.315 250.118,319.914 247.743 C 319.286 246.680,318.983 245.249,318.751 242.253 C 318.364 237.248,316.845 233.831,314.069 231.718 C 309.268 228.063,304.451 232.683,306.212 239.252 C 307.683 244.736,307.748 245.437,307.052 248.302 C 305.817 253.393,306.929 257.226,311.200 262.601 C 314.706 267.013,315.221 267.785,315.571 269.165 C 318.819 281.941,320.468 285.376,325.955 290.800 C 328.886 293.697,330.589 295.013,333.121 296.339 C 338.964 299.399,339.370 300.292,343.976 320.176 C 346.521 331.163,346.549 332.000,344.366 332.000 C 342.752 332.000,342.239 330.990,341.012 325.400 C 339.229 317.274,336.016 304.792,335.402 303.604 C 334.696 302.238,333.682 301.422,328.961 298.422 C 320.139 292.814,314.710 284.593,312.387 273.323 C 311.771 270.330,311.146 269.152,308.553 266.094 C 307.384 264.715,305.699 262.339,304.808 260.814 C 302.470 256.811,302.240 256.767,295.200 258.992 C 292.670 259.791,288.032 260.956,284.892 261.580 C 276.923 263.164,276.867 263.242,280.146 268.173 C 290.373 283.549,307.317 323.487,306.715 330.797 C 306.563 332.641,304.966 333.531,303.155 332.781 C 301.623 332.147,301.626 332.153,299.035 323.928 C 292.595 303.489,280.947 278.559,272.971 268.145 C 270.187 264.510,269.713 264.327,263.494 264.478 C 257.769 264.617,256.318 264.082,256.081 261.748 C 255.849 259.456,257.236 258.764,262.872 258.364 C 277.145 257.351,286.268 255.782,295.480 252.756 C 302.958 250.300,303.582 249.002,301.807 239.594 C 299.225 225.910,311.910 221.082,320.896 232.329 C 322.377 234.182,324.036 233.095,325.965 229.010 C 330.818 218.733,331.134 207.092,326.871 195.600 C 326.129 193.599,326.075 192.784,326.277 186.600 C 326.602 176.638,325.328 160.277,323.334 148.800 C 321.431 137.847,321.556 137.329,325.984 137.830 L 328.332 138.096 330.375 136.185 C 338.524 128.562,347.379 106.179,343.700 102.500 C 338.244 97.044,304.021 94.382,293.930 98.629 C 291.030 99.850,290.529 99.681,285.107 95.659 C 265.392 81.034,240.054 73.505,208.558 72.911 C 182.000 72.410,153.804 77.134,140.935 84.239 C 137.916 85.906,136.614 85.953,134.791 84.461 C 132.659 82.716,132.072 82.503,127.579 81.838 C 109.586 79.176,92.883 80.388,91.156 84.481 C 90.306 86.498,90.427 100.630,91.338 105.600 C 93.314 116.382,93.867 117.628,96.800 117.910 C 100.482 118.263,100.823 119.830,98.193 124.317 C 90.770 136.983,86.616 162.024,89.332 177.733 C 90.185 182.667,89.991 183.146,86.108 185.706 C 77.327 191.495,73.611 205.643,77.648 217.916 C 78.650 220.960,79.363 221.492,83.075 221.958 C 91.256 222.985,95.829 229.000,93.154 235.217 C 91.936 238.049,92.272 238.802,95.906 241.384 C 105.789 248.409,121.173 253.694,138.539 256.032 C 148.457 257.367,150.028 258.065,148.863 260.622 C 148.064 262.375,146.883 262.606,141.473 262.073 C 133.366 261.275,133.323 261.291,131.477 265.868 C 125.597 280.449,121.599 302.237,121.365 320.971 C 121.217 332.831,121.194 332.933,118.757 332.933 C 115.845 332.933,115.387 330.800,115.729 318.814 C 116.238 300.986,119.338 283.760,124.875 268.004 C 127.716 259.916,127.833 260.207,120.997 258.382 C 111.947 255.968,103.482 252.517,96.000 248.191 C 91.293 245.470,81.042 251.096,77.782 258.188 C 72.347 270.012,61.531 279.417,50.867 281.590 C 45.246 282.736,45.398 282.577,35.600 297.540 C 16.038 327.414,12.527 332.040,11.754 328.957 C 11.268 327.021,12.292 325.258,25.032 306.108 C 44.888 276.263,42.908 278.644,48.566 277.795 C 59.036 276.223,68.582 268.180,74.195 256.200 C 76.147 252.032,77.365 250.784,83.232 246.940 C 87.767 243.969,87.734 244.004,87.217 242.645 C 86.391 240.471,82.417 241.315,74.670 245.307 C 70.847 247.277,70.555 247.702,70.014 252.072 C 69.053 259.838,63.105 269.200,59.132 269.200 C 55.916 269.200,56.071 267.474,59.608 263.908 C 63.808 259.676,65.246 256.523,65.583 250.808 C 65.889 245.612,65.958 245.505,71.248 242.007 C 73.979 240.200,75.919 239.320,80.589 237.769 C 87.704 235.407,89.382 234.245,89.382 231.676 C 89.382 226.063,80.848 224.592,71.600 228.611 C 60.512 233.429,55.009 234.391,52.559 231.941 C 51.128 230.510,51.550 229.442,54.042 228.179 C 56.084 227.144,56.396 226.690,57.786 222.732 C 58.272 221.348,59.022 220.386,60.680 219.021 C 61.911 218.008,63.609 216.394,64.453 215.435 C 65.296 214.477,66.675 213.417,67.516 213.080 C 69.807 212.163,69.928 211.851,70.070 206.465 C 70.221 200.753,69.922 200.169,67.043 200.539 C 63.769 200.960,54.057 206.294,44.753 212.781 C 38.268 217.303,38.079 217.470,36.953 219.692 C 36.394 220.795,34.898 223.251,33.629 225.149 C 28.026 233.527,23.903 243.119,21.401 253.600 L 20.302 258.200 16.957 261.530 C 13.620 264.852,12.717 265.285,11.884 263.962 C 11.218 262.905,11.929 261.228,13.964 259.056 C 16.426 256.428,16.529 256.212,17.795 251.057 C 19.980 242.161,24.695 231.373,29.846 223.484 C 31.252 221.331,32.848 218.721,33.393 217.684 C 34.931 214.757,35.768 213.998,42.400 209.514 C 56.113 200.242,62.601 196.886,67.671 196.444 C 71.344 196.123,72.013 195.637,73.604 192.126 C 75.271 188.451,76.954 186.151,80.511 182.688 L 83.708 179.576 83.354 175.288 C 82.098 160.067,84.181 143.920,89.094 130.800 C 90.767 126.330,90.825 124.764,89.449 121.142 C 84.303 107.600,83.215 83.703,87.533 79.051 C 91.903 74.343,114.223 73.443,133.352 77.204 L 139.304 78.375 141.352 77.639 C 148.691 75.005,151.248 74.196,156.600 72.812 C 173.430 68.462,196.654 66.177,213.600 67.204 M154.489 157.193 C 162.233 160.090,164.405 169.673,158.716 175.845 C 152.902 182.152,142.973 183.411,138.030 178.469 C 129.430 169.868,142.659 152.767,154.489 157.193 M245.338 158.509 C 252.607 161.048,257.254 172.154,253.702 178.499 C 248.062 188.571,229.221 181.970,229.204 169.915 C 229.191 161.206,237.083 155.626,245.338 158.509 M190.366 181.414 C 194.413 184.198,199.020 184.967,203.031 183.528 C 205.948 182.482,206.910 182.726,207.129 184.566 C 207.712 189.469,196.954 190.825,189.751 186.757 C 187.314 185.380,185.951 185.313,183.396 186.443 C 178.088 188.791,171.200 187.022,171.200 183.311 C 171.200 181.168,173.176 180.538,175.720 181.870 C 177.733 182.924,180.240 182.724,183.000 181.287 C 186.233 179.605,187.775 179.632,190.366 181.414 M65.446 220.650 C 59.626 225.787,60.771 228.454,67.458 225.335 C 72.355 223.051,73.088 222.091,71.815 219.629 C 70.560 217.202,69.085 217.439,65.446 220.650 M326.581 239.100 C 323.503 242.242,322.935 243.595,323.882 245.531 C 325.386 248.608,327.448 247.517,328.945 242.854 C 330.259 238.759,330.357 238.223,329.928 237.457 C 329.363 236.448,329.007 236.623,326.581 239.100 M155.955 285.344 C 156.382 286.171,156.806 287.689,159.805 299.117 C 162.209 308.279,161.651 312.813,157.627 316.837 C 152.418 322.046,144.693 322.005,138.977 316.736 C 133.217 311.427,128.171 298.629,130.800 296.000 C 132.847 293.953,134.748 295.550,136.190 300.528 C 139.510 311.984,146.636 317.828,152.454 313.866 C 156.257 311.277,156.431 307.404,153.245 296.221 C 150.603 286.947,150.595 284.744,153.200 283.913 C 154.066 283.636,155.441 284.351,155.955 285.344 M244.674 285.670 C 245.920 286.840,245.860 288.283,244.387 292.625 C 239.658 306.565,239.620 313.537,244.257 316.255 C 249.885 319.553,254.971 314.819,259.792 301.800 C 261.419 297.405,262.424 296.000,263.938 296.000 C 266.815 296.000,267.065 298.522,264.789 304.582 C 259.154 319.582,251.967 325.321,243.010 321.970 C 234.366 318.735,232.965 310.019,238.368 293.079 C 240.990 284.857,242.243 283.385,244.674 285.670  M -25 0 L -5 0 L -5 20 L -25 20 Z M 405 0 L 425 0 L 425 20 L 405 20 Z" stroke="none" fill="#fbfaf9" fill-rule="evenodd" transform="translate(30,0)"></path><path id="path1" d="M195.000 67.239 C 181.958 67.934,167.167 70.081,156.600 72.812 C 151.248 74.196,148.691 75.005,141.352 77.639 L 139.304 78.375 133.352 77.204 C 114.223 73.443,91.903 74.343,87.533 79.051 C 83.215 83.703,84.303 107.600,89.449 121.142 C 90.825 124.764,90.767 126.330,89.094 130.800 C 84.181 143.920,82.098 160.067,83.354 175.288 L 83.708 179.576 80.511 182.688 C 76.954 186.151,75.271 188.451,73.604 192.126 C 72.013 195.637,71.344 196.123,67.671 196.444 C 62.601 196.886,56.113 200.242,42.400 209.514 C 35.768 213.998,34.931 214.757,33.393 217.684 C 32.848 218.721,31.252 221.331,29.846 223.484 C 24.695 231.373,19.980 242.161,17.795 251.057 C 16.529 256.212,16.426 256.428,13.964 259.056 C 11.929 261.228,11.218 262.905,11.884 263.962 C 12.717 265.285,13.620 264.852,16.957 261.530 L 20.302 258.200 21.401 253.600 C 23.903 243.119,28.026 233.527,33.629 225.149 C 34.898 223.251,36.394 220.795,36.953 219.692 C 38.079 217.470,38.268 217.303,44.753 212.781 C 54.057 206.294,63.769 200.960,67.043 200.539 C 69.922 200.169,70.221 200.753,70.070 206.465 C 69.928 211.851,69.807 212.163,67.516 213.080 C 66.675 213.417,65.296 214.477,64.453 215.435 C 63.609 216.394,61.911 218.008,60.680 219.021 C 59.022 220.386,58.272 221.348,57.786 222.732 C 56.396 226.690,56.084 227.144,54.042 228.179 C 51.550 229.442,51.128 230.510,52.559 231.941 C 55.009 234.391,60.512 233.429,71.600 228.611 C 80.848 224.592,89.382 226.063,89.382 231.676 C 89.382 234.245,87.704 235.407,80.589 237.769 C 75.919 239.320,73.979 240.200,71.248 242.007 C 65.958 245.505,65.889 245.612,65.583 250.808 C 65.246 256.523,63.808 259.676,59.608 263.908 C 56.071 267.474,55.916 269.200,59.132 269.200 C 63.105 269.200,69.053 259.838,70.014 252.072 C 70.555 247.702,70.847 247.277,74.670 245.307 C 82.417 241.315,86.391 240.471,87.217 242.645 C 87.734 244.004,87.767 243.969,83.232 246.940 C 77.365 250.784,76.147 252.032,74.195 256.200 C 68.582 268.180,59.036 276.223,48.566 277.795 C 42.908 278.644,44.888 276.263,25.032 306.108 C 12.292 325.258,11.268 327.021,11.754 328.957 C 12.527 332.040,16.038 327.414,35.600 297.540 C 45.398 282.577,45.246 282.736,50.867 281.590 C 61.531 279.417,72.347 270.012,77.782 258.188 C 81.042 251.096,91.293 245.470,96.000 248.191 C 103.482 252.517,111.947 255.968,120.997 258.382 C 127.833 260.207,127.716 259.916,124.875 268.004 C 119.338 283.760,116.238 300.986,115.729 318.814 C 115.387 330.800,115.845 332.933,118.757 332.933 C 121.194 332.933,121.217 332.831,121.365 320.971 C 121.599 302.237,125.597 280.449,131.477 265.868 C 133.323 261.291,133.366 261.275,141.473 262.073 C 146.883 262.606,148.064 262.375,148.863 260.622 C 150.028 258.065,148.457 257.367,138.539 256.032 C 121.173 253.694,105.789 248.409,95.906 241.384 C 92.272 238.802,91.936 238.049,93.154 235.217 C 95.829 229.000,91.256 222.985,83.075 221.958 C 79.363 221.492,78.650 220.960,77.648 217.916 C 73.611 205.643,77.327 191.495,86.108 185.706 C 89.991 183.146,90.185 182.667,89.332 177.733 C 86.616 162.024,90.770 136.983,98.193 124.317 C 100.823 119.830,100.482 118.263,96.800 117.910 C 93.867 117.628,93.314 116.382,91.338 105.600 C 90.427 100.630,90.306 86.498,91.156 84.481 C 92.883 80.388,109.586 79.176,127.579 81.838 C 132.072 82.503,132.659 82.716,134.791 84.461 C 136.614 85.953,137.916 85.906,140.935 84.239 C 153.804 77.134,182.000 72.410,208.558 72.911 C 240.054 73.505,265.392 81.034,285.107 95.659 C 290.529 99.681,291.030 99.850,293.930 98.629 C 304.021 94.382,338.244 97.044,343.700 102.500 C 347.379 106.179,338.524 128.562,330.375 136.185 L 328.332 138.096 325.984 137.830 C 321.556 137.329,321.431 137.847,323.334 148.800 C 325.328 160.277,326.602 176.638,326.277 186.600 C 326.075 192.784,326.129 193.599,326.871 195.600 C 331.134 207.092,330.818 218.733,325.965 229.010 C 324.036 233.095,322.377 234.182,320.896 232.329 C 311.910 221.082,299.225 225.910,301.807 239.594 C 303.582 249.002,302.958 250.300,295.480 252.756 C 286.268 255.782,277.145 257.351,262.872 258.364 C 257.236 258.764,255.849 259.456,256.081 261.748 C 256.318 264.082,257.769 264.617,263.494 264.478 C 269.713 264.327,270.187 264.510,272.971 268.145 C 280.947 278.559,292.595 303.489,299.035 323.928 C 301.626 332.153,301.623 332.147,303.155 332.781 C 304.966 333.531,306.563 332.641,306.715 330.797 C 307.317 323.487,290.373 283.549,280.146 268.173 C 276.867 263.242,276.923 263.164,284.892 261.580 C 288.032 260.956,292.670 259.791,295.200 258.992 C 302.240 256.767,302.470 256.811,304.808 260.814 C 305.699 262.339,307.384 264.715,308.553 266.094 C 311.146 269.152,311.771 270.330,312.387 273.323 C 314.710 284.593,320.139 292.814,328.961 298.422 C 333.682 301.422,334.696 302.238,335.402 303.604 C 336.016 304.792,339.229 317.274,341.012 325.400 C 342.239 330.990,342.752 332.000,344.366 332.000 C 346.549 332.000,346.521 331.163,343.976 320.176 C 339.370 300.292,338.964 299.399,333.121 296.339 C 330.589 295.013,328.886 293.697,325.955 290.800 C 320.468 285.376,318.819 281.941,315.571 269.165 C 315.221 267.785,314.706 267.013,311.200 262.601 C 306.929 257.226,305.817 253.393,307.052 248.302 C 307.748 245.437,307.683 244.736,306.212 239.252 C 304.451 232.683,309.268 228.063,314.069 231.718 C 316.845 233.831,318.364 237.248,318.751 242.253 C 318.983 245.249,319.286 246.680,319.914 247.743 C 321.315 250.118,327.145 257.493,327.829 257.756 C 329.933 258.563,331.029 257.322,330.620 254.596 C 330.311 252.533,330.975 249.479,333.185 242.797 C 334.989 237.343,335.115 235.785,334.150 230.920 C 333.503 227.661,333.505 227.612,334.557 223.320 C 335.139 220.944,335.772 217.407,335.962 215.460 C 336.658 208.354,338.818 209.554,344.792 220.366 C 345.936 222.438,347.824 225.318,348.988 226.766 C 352.401 231.015,353.582 233.935,354.239 239.753 C 354.853 245.177,358.293 244.828,358.769 239.293 C 358.991 236.702,359.043 236.595,360.125 236.471 C 365.264 235.882,368.094 249.161,369.613 281.000 L 370.052 290.200 371.989 294.400 C 374.713 300.308,382.852 318.797,385.459 325.000 C 387.873 330.742,388.793 332.056,389.906 331.345 C 391.354 330.420,390.812 326.766,388.430 321.400 C 387.259 318.760,385.351 314.440,384.190 311.800 C 383.029 309.160,380.869 304.300,379.389 301.000 C 377.909 297.700,376.086 293.621,375.337 291.936 L 373.976 288.872 373.580 279.736 C 372.049 244.443,369.598 235.967,359.445 230.862 C 356.505 229.384,355.709 228.756,354.119 226.662 C 353.091 225.308,351.774 223.642,351.191 222.961 C 350.608 222.279,349.262 220.119,348.201 218.161 C 344.667 211.642,342.307 208.674,338.170 205.545 C 335.778 203.736,335.680 203.563,333.645 197.600 L 332.075 193.000 331.857 182.000 C 331.619 170.060,331.251 164.940,329.902 154.800 C 328.575 144.835,328.313 145.903,333.272 141.100 C 335.600 138.845,338.356 135.830,339.397 134.400 C 346.582 124.526,352.704 103.199,349.460 99.344 C 344.003 92.859,314.290 88.735,296.241 91.957 C 291.030 92.887,291.483 93.020,284.876 88.626 C 261.312 72.955,229.550 65.396,195.000 67.239 M146.914 156.980 C 139.361 159.341,133.779 168.097,135.625 174.689 C 139.088 187.058,161.783 181.257,161.797 168.000 C 161.805 160.037,154.482 154.615,146.914 156.980 M238.531 157.999 C 229.160 159.958,225.938 171.715,232.914 178.496 C 241.705 187.040,254.908 184.016,254.867 173.468 C 254.829 163.775,246.884 156.253,238.531 157.999 M183.000 181.287 C 180.240 182.724,177.733 182.924,175.720 181.870 C 173.176 180.538,171.200 181.168,171.200 183.311 C 171.200 187.022,178.088 188.791,183.396 186.443 C 185.951 185.313,187.314 185.380,189.751 186.757 C 196.954 190.825,207.712 189.469,207.129 184.566 C 206.910 182.726,205.948 182.482,203.031 183.528 C 199.020 184.967,194.413 184.198,190.366 181.414 C 187.775 179.632,186.233 179.605,183.000 181.287 M70.582 218.248 C 71.343 218.540,72.400 220.437,72.400 221.510 C 72.400 223.810,63.094 227.970,62.065 226.130 C 61.396 224.934,62.356 223.378,65.446 220.650 C 68.334 218.102,69.175 217.708,70.582 218.248 M329.928 237.457 C 330.357 238.223,330.259 238.759,328.945 242.854 C 327.448 247.517,325.386 248.608,323.882 245.531 C 322.935 243.595,323.503 242.242,326.581 239.100 C 329.007 236.623,329.363 236.448,329.928 237.457 M153.200 283.913 C 150.595 284.744,150.603 286.947,153.245 296.221 C 156.431 307.404,156.257 311.277,152.454 313.866 C 146.636 317.828,139.510 311.984,136.190 300.528 C 134.748 295.550,132.847 293.953,130.800 296.000 C 128.171 298.629,133.217 311.427,138.977 316.736 C 148.085 325.132,161.200 319.589,161.200 307.345 C 161.200 304.505,160.986 303.526,157.403 290.000 C 155.996 284.687,155.053 283.321,153.200 283.913 M241.900 285.232 C 239.615 286.563,235.120 302.332,235.125 309.000 C 235.135 321.351,247.396 327.401,256.044 319.323 C 261.999 313.760,268.264 299.011,265.669 296.662 C 263.569 294.762,261.838 296.275,259.792 301.800 C 254.971 314.819,249.885 319.553,244.257 316.255 C 239.620 313.537,239.658 306.565,244.387 292.625 C 246.357 286.818,245.181 283.321,241.900 285.232  M -25 0 L -5 0 L -5 20 L -25 20 Z M 405 0 L 425 0 L 425 20 L 405 20 Z" stroke="none" fill="#773f24" fill-rule="evenodd" transform="translate(490,0)"></path></g></svg>