<?xml version="1.0" standalone="no"?>
<!DOCTYPE svg PUBLIC "-//W3C//DTD SVG 20010904//EN"
 "http://www.w3.org/TR/2001/REC-SVG-20010904/DTD/svg10.dtd">
<svg version="1.0" xmlns="http://www.w3.org/2000/svg"
 width="180.000000pt" height="180.000000pt" viewBox="0 0 180.000000 180.000000"
 preserveAspectRatio="xMidYMid meet">

<g transform="translate(0.000000,180.000000) scale(0.100000,-0.100000)"
fill="#000000" stroke="none">
<path d="M1420 1644 c-30 -14 -62 -31 -70 -39 -13 -12 -24 -10 -75 7 -203 68
-515 0 -667 -146 -26 -25 -30 -26 -111 -20 -105 8 -127 -1 -127 -54 1 -57 18
-120 54 -197 23 -49 36 -92 40 -141 l7 -71 -30 -13 c-35 -14 -61 -49 -61 -82
-1 -22 -18 -36 -128 -104 -71 -44 -121 -95 -147 -149 -30 -60 -26 -78 18 -89
22 -5 23 -9 16 -58 -4 -29 -12 -71 -19 -93 -7 -21 -10 -58 -7 -80 6 -38 4 -43
-26 -60 -42 -24 -56 -44 -57 -76 0 -54 63 -73 168 -49 33 8 55 7 95 -5 86 -25
302 -45 479 -45 111 0 168 -4 168 -11 0 -5 15 -16 34 -24 44 -19 117 -6 236
40 47 18 120 37 162 44 90 13 258 68 321 105 96 56 92 166 -5 166 -18 0 -26 8
-34 35 -10 33 -9 36 25 63 36 29 81 105 81 136 0 64 -63 76 -107 21 -15 -19
-31 -35 -36 -35 -4 0 -18 24 -31 53 -12 28 -40 74 -60 100 -21 27 -36 50 -34
51 101 61 141 111 159 194 18 86 -6 220 -55 312 -7 14 -16 63 -19 110 -10 128
-47 230 -86 230 -9 0 -41 -12 -71 -26z m107 -74 c14 -42 22 -90 23 -134 0 -54
6 -82 28 -130 59 -125 67 -273 21 -355 -26 -47 -80 -87 -140 -105 -50 -15 -64
-36 -24 -36 33 0 72 -41 114 -120 52 -98 53 -204 2 -280 -29 -43 -99 -94 -145
-106 -23 -6 -25 -9 -20 -48 8 -53 -12 -76 -63 -76 -28 0 -44 8 -74 39 -50 49
-54 99 -12 143 25 26 25 28 7 28 -18 0 -22 10 -32 83 -6 45 -14 92 -18 105 -6
21 -3 22 44 22 28 0 54 5 57 10 4 6 -7 10 -27 10 -96 1 -178 44 -205 108 -31
74 25 109 93 57 38 -29 85 -33 105 -8 13 15 11 16 -21 10 -29 -5 -43 -1 -79
23 -50 34 -67 37 -98 15 -21 -14 -26 -13 -77 15 -85 49 -176 70 -293 70 -101
0 -102 0 -115 27 -7 15 -27 32 -43 38 -41 14 -45 21 -45 95 0 53 -5 72 -24
101 -47 69 -90 229 -66 244 17 11 137 8 157 -4 13 -7 29 2 73 41 113 101 280
159 460 160 85 0 119 -5 177 -24 70 -24 72 -24 95 -5 35 28 101 57 123 54 15
-1 26 -18 42 -67z m-989 -626 c47 -32 12 -81 -66 -91 -61 -8 -85 29 -48 76 24
31 80 39 114 15z m357 -83 c33 -12 77 -33 97 -46 31 -21 38 -31 38 -58 0 -46
33 -93 89 -128 44 -27 49 -35 62 -87 15 -62 16 -151 4 -225 -7 -41 -4 -52 18
-86 14 -21 42 -49 62 -61 l36 -22 -83 -30 c-171 -62 -240 -69 -254 -25 -9 29
31 61 103 83 64 19 102 44 68 44 -54 0 -140 -35 -178 -73 l-40 -40 -226 6
c-251 7 -366 22 -447 62 -92 45 -120 120 -91 248 9 40 20 98 26 130 14 80 54
161 106 212 61 61 98 79 138 66 51 -16 157 18 157 50 0 21 246 5 315 -20z
m-703 -178 c-11 -21 -25 -55 -31 -75 -12 -35 -28 -47 -44 -32 -11 11 22 77 55
112 18 17 33 32 35 32 2 0 -5 -17 -15 -37z m1536 -46 c2 -15 -6 -42 -18 -62
-22 -36 -75 -85 -91 -85 -5 0 -9 19 -9 43 0 36 6 50 43 90 46 52 70 56 75 14z
m-93 -238 c6 -36 7 -37 45 -32 32 5 40 2 50 -17 17 -32 0 -63 -52 -93 -46 -27
-199 -81 -263 -93 l-38 -7 23 23 c17 17 21 31 18 61 -3 37 -2 39 34 54 50 20
115 79 140 128 22 45 33 39 43 -24z m-1495 -168 c0 -5 11 -23 25 -39 28 -34
27 -36 -27 -46 -70 -13 -106 28 -61 70 26 24 63 33 63 15z"/>
<path d="M1225 1164 c-19 -20 -16 -63 6 -77 26 -16 68 0 75 29 12 48 -46 83
-81 48z"/>
<path d="M1130 1049 c0 -19 -4 -20 -34 -15 -25 5 -35 3 -40 -9 -6 -18 -36 -20
-36 -3 0 9 -3 9 -11 1 -6 -6 -8 -16 -5 -22 10 -16 42 -14 59 3 8 9 24 12 36 9
11 -3 28 0 36 7 17 14 20 50 5 50 -5 0 -10 -10 -10 -21z"/>
<path d="M836 1044 c-9 -8 -16 -24 -16 -34 0 -16 -5 -18 -30 -13 -18 3 -30 1
-30 -5 0 -5 17 -13 38 -17 20 -4 52 -18 70 -32 33 -25 55 -25 34 -1 -7 9 -6
19 4 32 20 28 17 53 -8 70 -28 20 -43 20 -62 0z"/>
<path d="M899 643 c-5 -95 11 -177 36 -187 45 -17 200 72 180 103 -5 9 -16 4
-39 -18 -46 -45 -125 -68 -141 -41 -3 6 -8 45 -10 87 -1 45 -8 79 -14 81 -6 2
-12 -9 -12 -25z"/>
<path d="M332 448 c-20 -20 -14 -66 9 -79 31 -16 69 3 69 35 0 45 -49 73 -78
44z"/>
<path d="M710 410 c-24 -45 21 -92 66 -71 27 12 33 58 12 79 -20 20 -66 15
-78 -8z"/>
<path d="M466 368 c-11 -24 2 -40 27 -37 12 2 32 -3 45 -9 16 -9 27 -10 42 -2
21 11 28 40 10 40 -5 0 -10 -4 -10 -10 0 -17 -32 -11 -46 8 -10 14 -15 15 -25
5 -18 -18 -27 -16 -32 5 -4 16 -4 16 -11 0z"/>
<path d="M168 1259 c-10 -5 -18 -19 -18 -29 0 -16 -4 -18 -22 -11 -51 19 -94
-33 -58 -69 20 -20 101 -37 120 -25 16 10 40 69 40 99 0 15 -8 30 -19 36 -23
12 -22 12 -43 -1z"/>
</g>
</svg>
